{"title":"Flight of the intruder 1991 BDRip 720p Dual Audio Hindi English ","uid":10096427,"size":694669850,"categoryP":"video","categoryS":"movies","magnet":"?xt=urn:btih:96b8d04fc2bce49d2fe83a117794fdc0ed0d70a6&amp;dn=Flight+of+the+intruder+1991+BDRip+720p+Dual+Audio+Hindi+English+&amp;tr=udp%3A%2F%2Ftracker.openbittorrent.com%3A80&amp;tr=udp%3A%2F%2Fopen.demonii.com%3A1337&amp;tr=udp%3A%2F%2Ftracker.coppersurfer.tk%3A6969&amp;tr=udp%3A%2F%2Fexodus.desync.com%3A6969","seeders":13,"leechers":1,"uploader":"jatt13","files":1,"time":1399308029,"description":"Video\nID                             : 2\nFormat                         : AVC\nFormat/Info                    : Advanced Video Codec\nFormat profile                 : &lt;a class=&quot;__cf_email__&quot; href=&quot;/cdn-cgi/l/email-protection&quot; data-cfemail=&quot;ffb29e9691bfb3ccd1ce&quot;&gt;[email&amp;#160;protected]&lt;/a&gt;&lt;script cf-hash='f9e31' type=&quot;text/javascript&quot;&gt;\n/* &lt;![CDATA[ */!function(){try{var t=&quot;currentScript&quot;in document?document.currentScript:function(){for(var t=document.getElementsByTagName(&quot;script&quot;),e=t.length;e--;)if(t[e].getAttribute(&quot;cf-hash&quot;))return t[e]}();if(t&amp;&amp;t.previousSibling){var e,r,n,i,c=t.previousSibling,a=c.getAttribute(&quot;data-cfemail&quot;);if(a){for(e=&quot;&quot;,r=parseInt(a.substr(0,2),16),n=2;a.length-n;n+=2)i=parseInt(a.substr(n,2),16)^r,e+=String.fromCharCode(i);e=document.createTextNode(e),c.parentNode.replaceChild(e,c)}}}catch(u){}}();/* ]]&gt; */&lt;/script&gt;\nFormat settings, CABAC         : Yes\nFormat settings, ReFrames      : 5 frames\nCodec ID                       : V_MPEG4/ISO/AVC\nDuration                       : 1h 54mn\nBit rate                       : 700 Kbps\nWidth                          : 1 280 pixels\nHeight                         : 544 pixels\nDisplay aspect ratio           : 2.35:1\nFrame rate mode                : Constant\nFrame rate                     : 23.810 fps\nColor space                    : YUV\nChroma subsampling             : 4:2:0\nBit depth                      : 8 bits\nScan type                      : Progressive\nBits/(Pixel*Frame)             : 0.042\nStream size                    : 564 MiB (85%)\nTitle                          : GOPI SAHI\nWriting library                : x264 core \nLanguage                       : English\nDefault                        : Yes\nForced                         : No\nColor primaries                : BT.709\nTransfer characteristics       : BT.709\nMatrix coefficients            : BT.709\n\nAudio #1\nID                             : 1\nFormat                         : MPEG Audio\nFormat version                 : Version 1\nFormat profile                 : Layer 3\nMode                           : Joint stereo\nMode extension                 : MS Stereo\nCodec ID                       : A_MPEG/L3\nCodec ID/Hint                  : MP3\nDuration                       : 1h 54mn\nBit rate mode                  : Constant\nBit rate                       : 56.0 Kbps\nChannel count                  : 2 channels\nSampling rate                  : 44.1 KHz\nCompression mode               : Lossy\nStream size                    : 46.0 MiB (7%)\nTitle                          : GOPI SAHI\nWriting library                : LAME3.98.2\nLanguage                       : Hindi\nDefault                        : Yes\nForced                         : No\n\nAudio #2\nID                             : 3\nFormat                         : MPEG Audio\nFormat version                 : Version 1\nFormat profile                 : Layer 3\nMode                           : Joint stereo\nMode extension                 : MS Stereo\nCodec ID                       : A_MPEG/L3\nCodec ID/Hint                  : MP3\nDuration                       : 1h 54mn\nBit rate mode                  : Constant\nBit rate                       : 48.0 Kbps\nChannel count                  : 2 channels\nSampling rate                  : 44.1 KHz\nCompression mode               : Lossy\nStream size                    : 39.4 MiB (6%)\nTitle                          : GOPI SAHI\nWriting library                : LAME3.98.2\nLanguage                       : English\nDefault                        : No\nForced                         : No\n[IMG]http://i.imgur.com/rxNDI06.jpg[/IMG]\n[IMG]http://i.imgur.com/3xzCKY2.jpg[/IMG]\n[IMG]http://i.imgur.com/5WHcqrL.jpg[/IMG]\n[IMG]http://i.imgur.com/RQUcyLP.jpg[/IMG]\n[IMG]http://i.imgur.com/MJ0QSlu.jpg[/IMG]","torrent":{"xt":"urn:btih:96b8d04fc2bce49d2fe83a117794fdc0ed0d70a6","amp;dn":"Flight+of+the+intruder+1991+BDRip+720p+Dual+Audio+Hindi+English+","amp;tr":["udp%3A%2F%2Ftracker.openbittorrent.com%3A80","udp%3A%2F%2Fopen.demonii.com%3A1337","udp%3A%2F%2Ftracker.coppersurfer.tk%3A6969","udp%3A%2F%2Fexodus.desync.com%3A6969"],"infoHash":"96b8d04fc2bce49d2fe83a117794fdc0ed0d70a6","infoHashBuffer":{"type":"Buffer","data":[150,184,208,79,194,188,228,157,47,232,58,17,119,148,253,192,237,13,112,166]},"announce":[],"urlList":[]}}